<svg width="50" height="50" viewBox="0 0 50 50" fill="none" xmlns="http://www.w3.org/2000/svg">
<path d="M21.4286 35.6177C20.1905 35.4804 18.9727 35.1987 17.8 34.7784C17.8357 33.9356 17.8571 33.057 17.8571 32.1427V31.857V30.9391C18.9643 31.4677 20.1678 31.8355 21.4286 32.0177V23.214C21.4286 21.7932 21.993 20.4306 22.9976 19.4259C24.0023 18.4212 25.3649 17.8568 26.7857 17.8568H35.5893C35.3045 15.8778 34.5491 13.996 33.3866 12.3694C32.224 10.7427 30.6883 9.4186 28.9082 8.50825C27.1281 7.5979 25.1556 7.12784 23.1562 7.13752C21.1569 7.14719 19.189 7.63633 17.4178 8.56387C17.1353 7.39576 16.6701 6.27961 16.0393 5.2567C18.3545 4.10106 20.9146 3.52157 23.5018 3.56747C26.089 3.61338 28.6269 4.28333 30.8997 5.52037C33.1725 6.75741 35.113 8.52496 36.5562 10.6728C37.9995 12.8206 38.9027 15.2851 39.1893 17.8568H44.6429C46.0637 17.8568 47.4263 18.4212 48.4309 19.4259C49.4356 20.4306 50 21.7932 50 23.214V41.0714C50 42.4922 49.4356 43.8548 48.4309 44.8595C47.4263 45.8641 46.0637 46.4286 44.6429 46.4286H26.7857C25.3649 46.4286 24.0023 45.8641 22.9976 44.8595C21.993 43.8548 21.4286 42.4922 21.4286 41.0714V35.6177ZM39.1893 21.4283C38.7835 25.0519 37.1581 28.43 34.5799 31.0083C32.0016 33.5865 28.6236 35.2119 25 35.6177V41.0714C25 41.545 25.1881 41.9992 25.523 42.3341C25.8579 42.6689 26.3121 42.8571 26.7857 42.8571H44.6429C45.1165 42.8571 45.5707 42.6689 45.9055 42.3341C46.2404 41.9992 46.4286 41.545 46.4286 41.0714V23.214C46.4286 22.7404 46.2404 22.2862 45.9055 21.9513C45.5707 21.6164 45.1165 21.4283 44.6429 21.4283H39.1893ZM35.5893 21.4283H26.7857C26.3121 21.4283 25.8579 21.6164 25.523 21.9513C25.1881 22.2862 25 22.7404 25 23.214V32.0177C27.6713 31.6316 30.1461 30.3916 32.0547 28.483C33.9632 26.5745 35.2032 24.0997 35.5893 21.4283Z" fill="#2F4F52"/>
<path d="M13.5536 23.4319C13.1786 22.0533 12.5714 20.6711 11.5286 19.6104C13.2143 18.014 14.2857 15.4711 14.2857 12.4996C14.2857 10.0103 13.7821 8.29957 12.8714 6.9317C12.4673 6.34338 12.0003 5.80088 11.4786 5.31383C11.2786 5.12078 11.0762 4.93029 10.8714 4.74239C10.6536 4.53882 10.4536 4.3531 10.1929 4.09238C9.65714 3.55666 9.59643 3.12809 9.59643 2.90309C9.59702 2.77802 9.61751 2.65385 9.65714 2.53523C9.82043 2.1821 9.86392 1.78531 9.78102 1.40519C9.69811 1.02508 9.49334 0.682439 9.19784 0.429381C8.90234 0.176323 8.53228 0.0266931 8.14394 0.00324693C7.7556 -0.0201992 7.37023 0.0838208 7.04643 0.299488L7.03928 0.30306L7.02857 0.310203L6.99643 0.331632L6.88928 0.403061C6.35357 0.785176 5.83744 1.19403 5.34286 1.62807C4.45 2.41737 3.28571 3.58524 2.46071 4.97811C1.74054 6.13287 1.16254 7.37042 0.739286 8.66386C0.310714 9.94602 0 11.3353 0 12.4996C0 15.4711 1.07143 18.0104 2.75714 19.614C1.71429 20.6711 1.10714 22.0533 0.732143 23.4354C1.59655e-07 26.1212 0 29.4426 0 32.0105V32.1427C0 39.4927 1.375 43.8571 2.93214 46.4535C3.71428 47.7535 4.52857 48.5928 5.21071 49.1214C5.57419 49.4049 5.96976 49.6447 6.38928 49.8357C6.63189 49.9243 6.88539 49.9795 7.14285 50C7.44285 50 7.89643 49.8357 7.89643 49.8357C8.31594 49.6447 8.71152 49.4049 9.075 49.1214C9.75357 48.5928 10.575 47.7535 11.3536 46.4535C12.9107 43.8606 14.2857 39.4927 14.2857 32.1427V32.0141C14.2857 29.4426 14.2857 26.1248 13.5536 23.4319ZM5.31071 22.1104C5.71428 21.7033 6.25357 21.4283 7.14285 21.4283C8.03571 21.4283 8.57143 21.7069 8.975 22.1069C9.425 22.5604 9.81428 23.2962 10.1071 24.3712C10.7 26.5533 10.7143 29.4176 10.7143 32.1427C10.7143 39.0785 9.41071 42.7499 8.28928 44.6178C7.86071 45.3321 7.45714 45.7928 7.14285 46.0821C6.6938 45.6503 6.30786 45.1573 5.99643 44.6178C4.875 42.7464 3.57143 39.0785 3.57143 32.1427C3.57143 29.4176 3.58571 26.5533 4.17857 24.3712C4.47143 23.2997 4.86071 22.5604 5.31071 22.1069V22.1104ZM7.14285 17.8568C5.76786 17.8568 3.57143 16.3282 3.57143 12.4996C3.57143 11.8818 3.75714 10.9032 4.12857 9.79601C4.46704 8.75078 4.93369 7.75149 5.51786 6.82098C5.82857 6.29598 6.23214 5.78526 6.66786 5.3174C6.91428 5.75312 7.23928 6.19241 7.66785 6.62098C7.92857 6.8817 8.26785 7.19599 8.55714 7.46742L9 7.88171C9.375 8.246 9.66428 8.56386 9.89643 8.91743C10.325 9.55673 10.7143 10.5246 10.7143 12.4996C10.7143 16.3282 8.51785 17.8568 7.14285 17.8568Z" fill="#2F4F52"/>
</svg>
