<?xml version="1.0" encoding="UTF-8" standalone="no"?>
<!DOCTYPE svg PUBLIC "-//W3C//DTD SVG 1.1//EN" "http://www.w3.org/Graphics/SVG/1.1/DTD/svg11.dtd">
<svg width="100%" height="100%" viewBox="0 0 739 703" version="1.1" xmlns="http://www.w3.org/2000/svg" xmlns:xlink="http://www.w3.org/1999/xlink" xml:space="preserve" xmlns:serif="http://www.serif.com/" style="fill-rule:evenodd;clip-rule:evenodd;stroke-linejoin:round;stroke-miterlimit:2;">
    <g transform="matrix(1,0,0,1,-2861.38,-794.287)">
        <g transform="matrix(0.863838,0,0,0.863838,2025.18,214.567)">
            <path d="M1295.5,706C1512.68,706 1823,817.321 1823,1034.5C1823,1251.68 1590.68,1449.39 1373.5,1449.39C1156.32,1449.39 968,1230.68 968,1013.5C968,796.321 1078.32,706 1295.5,706Z" style="fill:rgb(52,124,144);"/>
        </g>
        <g transform="matrix(-0.443141,0.741514,-0.741514,-0.443141,4617.08,576.507)">
            <path d="M1295.5,706C1512.68,706 1823,817.321 1823,1034.5C1823,1251.68 1590.68,1449.39 1373.5,1449.39C1156.32,1449.39 968,1230.68 968,1013.5C968,796.321 1078.32,706 1295.5,706Z" style="fill:rgb(52,124,144);fill-opacity:0.64;"/>
        </g>
        <g id="olympp" transform="matrix(3.04111,0,0,3.04111,3211.66,1110.17)">
            <g transform="matrix(1,0,0,1,-85.5,-55)">
                <clipPath id="_clip1">
                    <rect x="0" y="0" width="171" height="110"/>
                </clipPath>
                <g clip-path="url(#_clip1)">
                    <g id="Page-1">
                        <g id="homepage">
                            <g id="Group-18-Copy">
                                <path id="Fill-1" d="M75.666,92.001L68,101.01L75.713,110L76.239,110L84,100.967L76.191,92L75.666,92.001ZM71.702,101L75.939,95.878L80.227,100.977L75.967,106.123L71.702,101Z" style="fill:white;"/>
                                <path id="Fill-2" d="M90,93.008L90.044,110L99,109.975L98.995,107.191L92.837,107.208L92.8,93L90,93.008Z" style="fill:white;"/>
                                <path id="Fill-3" d="M109.017,99.528L105.711,92.018L103,93.302L107.621,102.641L107.638,109L110.447,108.99L110.429,102.679L115,93.27L112.303,92L109.017,99.528Z" style="fill:white;"/>
                                <path id="Fill-4" d="M131.575,93.002L128.491,102.447L125.332,93.02L124.439,93.021L120,109.406L123.088,110L125.231,100.836L128.03,109.78L128.946,109.778L131.766,100.819L133.914,109.973L137,109.363L132.467,93L131.575,93.002Z" style="fill:white;"/>
                                <path id="Fill-5" d="M143,92.002L143.024,109L145.862,108.993L145.851,105.178L154,99.489L143.776,92L143,92.002ZM145.827,96.724L149.402,99.431L145.842,102.016L145.827,96.724Z" style="fill:white;"/>
                                <path id="Fill-6" d="M160,92.002L160.024,109L162.862,108.993L162.85,105.178L171,99.489L160.775,92L160,92.002ZM162.827,96.724L166.402,99.431L162.842,102.015L162.827,96.724Z" style="fill:white;"/>
                                <g id="Group-17">
                                    <path id="Fill-7" d="M75.926,101.768C75.536,101.907 75.108,101.705 74.968,101.316C74.83,100.926 75.032,100.497 75.422,100.358C75.811,100.218 76.24,100.422 76.378,100.811C76.518,101.201 76.316,101.63 75.926,101.768" style="fill:white;"/>
                                    <g id="Group-11" transform="matrix(1,0,0,1,48.75,0)">
                                        <path id="Fill-9" d="M47.424,46.624C47.232,46.624 47.054,46.651 46.899,46.718C46.904,46.349 47.077,45.593 47.199,45.061C47.329,44.495 47.46,43.919 47.537,43.381C48.465,44.739 49.4,46.468 49.776,47.428C49.222,47.103 48.212,46.624 47.424,46.624ZM42.345,38.566C42.366,37.583 42.311,36.578 42.17,35.563C42.777,36.001 43.327,36.511 43.805,36.988C44.815,37.991 45.605,39.179 46.137,40.48C45.057,39.62 43.822,39.001 42.345,38.566ZM39.096,46.323C38.802,44.995 38.414,43.701 37.942,42.46C39.426,40.72 40.574,38.749 41.369,36.581C41.695,40.22 40.897,43.655 39.096,46.323ZM19.796,34.055C19.695,34.055 19.585,34.054 19.474,34.051C18.986,33.404 18.466,32.783 17.917,32.196C18.529,31.119 18.89,29.978 18.964,28.834C20.626,28.718 22.162,27.946 23.206,26.756L24.341,27.869C24.43,27.955 24.545,27.999 24.66,27.999C24.776,27.999 24.894,27.954 24.981,27.866L25.375,27.475C25.749,28.993 27.06,30.142 28.657,30.273C26.6,32.625 23.304,34.055 19.796,34.055ZM17.684,38.014C14.161,38.014 9.572,39.3 7.03,40.975C7.004,40.96 6.98,40.945 6.954,40.929C6.264,40.403 5.692,39.758 5.262,39.035C5.116,38.729 5.005,38.405 4.931,38.071C5.737,38.185 6.541,38.206 7.007,38.206C9.877,38.206 12.859,37.153 15.184,35.318C16.072,34.616 16.821,33.831 17.411,32.994C18.669,34.376 19.981,36.218 21.029,38.326C19.94,38.119 18.819,38.014 17.684,38.014ZM4.344,35.711C4.344,33.603 4.745,32.309 5.776,31.314C5.824,32.084 6.006,32.946 6.212,33.269C6.48,33.688 6.362,33.903 5.48,34.625C5.096,34.94 4.659,35.298 4.344,35.753L4.344,35.711ZM13.467,23.024C13.467,20.615 15.397,18.525 17.9,18.177L21.186,21.388L21.186,22.875C21.186,22.993 21.231,23.105 21.312,23.19L23.195,25.16C22.36,26.833 20.522,27.938 18.526,27.938C15.736,27.938 13.467,25.734 13.467,23.024ZM43.13,9.829C43.136,10.33 43.245,10.794 43.405,11.181C42.351,11.488 41.391,11.936 40.526,12.432L43.13,9.829ZM34.231,21.011C33.259,24.228 32.156,27.871 30.155,29.111C29.865,29.29 29.475,29.378 28.96,29.378C27.486,29.378 26.276,28.226 26.182,26.778L35.339,17.62C34.949,18.639 34.594,19.809 34.231,21.011ZM25.255,46.978C28.9,50.295 33.624,52.121 38.556,52.121C41.379,52.121 44.079,51.535 46.61,50.381C43.811,53.666 39.82,55.65 35.637,55.765C31.632,55.879 27.814,54.417 24.9,51.66C24.426,51.21 23.976,50.725 23.565,50.219C23.86,48.981 24.016,47.72 24.016,46.446C24.016,46.208 24.01,45.965 23.997,45.721C24.399,46.158 24.817,46.579 25.255,46.978ZM47.234,56.484C47.09,55.038 46.669,53.737 45.927,52.406C46.646,51.741 47.312,51.006 47.916,50.209C48.035,50.953 48.057,51.708 48.057,52.385C48.057,53.803 47.775,55.194 47.234,56.484ZM19.229,67.033C15.737,64.891 13.662,63.945 11.626,63.728C13.959,62.693 16.126,61.279 17.984,59.534C20.541,57.131 22.337,54.299 23.272,51.283C23.591,51.643 23.925,51.991 24.274,52.323C27.255,55.144 31.124,56.682 35.211,56.682C35.362,56.682 35.512,56.68 35.662,56.676C36.446,56.655 37.224,56.571 37.989,56.43C35.441,59.314 29.654,64.465 19.229,67.033ZM30.345,71.245C28.076,73.724 22.135,76.811 15.271,77.001L14.94,77.01C11.606,77.103 8.845,77.18 6.491,75.82C4.787,74.728 3.745,72.841 3.745,70.799C3.745,68.13 5.399,65.823 7.862,65.056L7.854,65.029C8.23,64.933 8.604,64.828 8.975,64.714L8.976,64.722C12.241,64.248 14.169,64.915 19.84,68.485C24.041,71.13 28.417,71.318 30.345,71.245ZM30.424,78.111C30.247,76.638 29.739,75.08 28.97,73.66C29.79,73.091 30.509,72.47 31.086,71.799C31.205,72.446 31.262,73.158 31.262,73.978C31.262,75.409 30.976,76.813 30.424,78.111ZM13.676,87.223C13.127,87.613 12.427,87.855 11.681,88.098C11.076,84.615 9.429,82.053 7.664,79.306C7.094,78.419 6.514,77.515 5.949,76.554C5.951,76.556 5.955,76.558 5.959,76.56C6.111,76.659 6.267,76.754 6.429,76.843L6.44,76.824C8.301,77.769 10.366,77.965 12.622,77.965C13.382,77.965 14.164,77.944 14.965,77.921L15.297,77.912C15.834,77.897 16.41,77.854 17.015,77.787C17.257,80.024 17.529,84.483 13.676,87.223ZM10.054,97.583C8.65,94.49 8.206,92.336 8.7,91.053C9.061,90.11 9.931,89.661 10.944,89.301C11.18,91.556 10.957,94.214 10.054,97.583ZM11.549,102.444L9.429,102.455C9.737,101.631 10.012,100.843 10.259,100.084C10.645,100.826 11.075,101.613 11.549,102.444ZM2.241,65.715C2.296,65.716 2.352,65.716 2.409,65.716C3.335,65.716 4.262,65.65 5.185,65.531C4.946,65.74 4.722,65.965 4.516,66.205C3.53,66.208 2.781,66.05 2.241,65.715ZM44.867,63.981C44.667,63.21 44.14,61.768 43.34,61.441C43.605,61.185 44.264,60.774 44.726,60.485C45.219,60.178 45.721,59.865 46.156,59.54C45.847,61.155 45.282,63.038 44.867,63.981ZM28.074,85.574C27.874,84.801 27.346,83.36 26.546,83.034C26.811,82.778 27.47,82.366 27.931,82.079C28.425,81.77 28.926,81.458 29.362,81.132C29.055,82.748 28.489,84.63 28.074,85.574ZM43.381,2.066L42.034,4.115L41.22,3.534C41.742,3.14 42.581,2.581 43.381,2.066ZM49.65,45.085C49.081,44.05 48.277,42.755 47.526,41.836C47.035,39.755 45.972,37.856 44.449,36.34C43.704,35.6 42.799,34.768 41.726,34.208C41.604,34.143 41.459,34.139 41.331,34.195C41.204,34.251 41.11,34.361 41.075,34.495C40.386,37.11 39.2,39.459 37.554,41.495C35.999,37.829 33.705,34.691 30.947,32.62C30.299,32.133 29.617,31.701 28.92,31.329C29.272,30.97 29.597,30.59 29.894,30.189C30.17,30.121 30.416,30.021 30.634,29.886C32.929,28.465 34.085,24.645 35.104,21.275C35.819,18.914 36.492,16.683 37.415,15.666C37.7,15.475 38.01,15.246 38.366,14.984C39.74,13.974 41.597,12.61 43.854,12.006C47.569,16.464 49.616,22.094 49.616,27.914C49.616,30.253 49.291,32.568 48.651,34.795L49.529,35.046C50.191,32.737 50.527,30.337 50.527,27.914C50.527,21.861 48.391,16.004 44.515,11.376C44.502,11.324 44.484,11.273 44.454,11.226C44.051,10.623 43.85,9.58 44.306,8.615C44.401,8.415 44.337,8.175 44.157,8.047C43.975,7.92 43.729,7.941 43.572,8.098L42.47,9.199C41.502,8.283 40.475,7.448 39.397,6.701L41.35,4.746L41.89,5.133C41.969,5.188 42.06,5.218 42.155,5.218C42.184,5.218 42.21,5.215 42.239,5.21C42.36,5.186 42.467,5.115 42.536,5.011L45.295,0.814C45.412,0.635 45.39,0.399 45.241,0.245C45.094,0.093 44.857,0.063 44.676,0.174C44.29,0.41 40.889,2.503 40.154,3.239C40.057,3.334 40.01,3.466 40.021,3.6C40.032,3.733 40.102,3.855 40.21,3.933L40.597,4.209L38.622,6.186C34.517,3.558 29.741,2.146 24.761,2.146C22.602,2.146 20.457,2.414 18.385,2.941L18.61,3.825C20.609,3.316 22.679,3.058 24.761,3.058C29.495,3.058 34.041,4.381 37.964,6.848L23.835,20.989L24.48,21.634L38.741,7.358C39.825,8.098 40.856,8.928 41.825,9.844L40.197,11.471L24.657,26.903L23.756,26.02C23.91,25.774 24.045,25.515 24.159,25.244C24.229,25.078 24.194,24.884 24.067,24.753L22.097,22.693L22.097,21.196C22.097,21.074 22.047,20.955 21.961,20.869L18.382,17.374C18.284,17.279 18.152,17.233 18.019,17.246C14.955,17.549 12.555,20.086 12.555,23.024C12.555,23.574 12.636,24.106 12.782,24.611L11.83,25.561C11.699,25.439 11.585,25.321 11.541,25.256C11.064,24.541 10.822,23.579 10.822,22.395C10.822,19.54 13.031,16.84 15.851,16.253C16.096,16.201 16.252,15.965 16.206,15.72L15.461,11.815C15.437,11.695 15.367,11.589 15.265,11.521C15.164,11.454 15.039,11.429 14.919,11.455C9.515,12.596 5.591,17.399 5.591,22.875C5.591,25.351 6.354,27.719 7.796,29.723L8.536,29.189C7.205,27.343 6.504,25.159 6.504,22.875C6.504,17.981 9.904,13.67 14.654,12.453L15.23,15.466C12.214,16.314 9.91,19.273 9.91,22.395C9.91,23.761 10.204,24.895 10.784,25.763C10.975,26.049 11.464,26.459 11.561,26.538C11.742,26.686 12.006,26.674 12.172,26.508L13.142,25.54C14.041,27.364 15.886,28.661 18.051,28.829C17.724,33.239 12.511,37.294 7.007,37.294C6.521,37.294 5.646,37.271 4.825,37.134C4.825,37.119 4.824,37.105 4.824,37.09C4.824,36.34 5.422,35.85 6.057,35.33C6.766,34.751 7.735,33.959 6.981,32.778C6.719,32.368 6.644,30.961 6.685,30.546C6.719,30.489 6.737,30.425 6.742,30.358C6.754,30.219 6.701,30.084 6.6,29.989C6.432,29.831 6.159,29.823 5.982,29.97C5.97,29.979 5.96,29.99 5.949,30.001C3.74,31.541 3.432,33.655 3.432,35.711C3.432,37.048 3.796,38.339 4.457,39.465C4.892,40.36 5.571,41.131 6.435,41.679C6.541,41.76 6.651,41.839 6.764,41.914C6.84,41.966 6.929,41.991 7.019,41.991C7.111,41.991 7.204,41.964 7.284,41.908C9.624,40.235 14.192,38.925 17.684,38.925C18.99,38.925 20.276,39.073 21.512,39.361C22.467,41.551 23.105,43.976 23.105,46.446C23.105,50.976 21.065,55.389 17.36,58.87C13.041,62.926 6.984,65.128 1.157,64.766C0.99,64.757 0.827,64.839 0.739,64.984C0.651,65.129 0.651,65.31 0.737,65.455C1.329,66.44 2.356,66.98 3.865,67.095C3.205,68.171 2.832,69.445 2.832,70.799C2.832,71.946 3.121,73.051 3.641,74.028L3.595,74.049C4.616,76.251 5.776,78.055 6.897,79.8C8.671,82.559 10.261,85.031 10.82,88.379C9.561,88.809 8.37,89.366 7.849,90.725C7.2,92.412 7.764,95.011 9.671,98.92C9.31,100.11 8.869,101.382 8.34,102.749C8.285,102.89 8.304,103.049 8.39,103.173C8.475,103.296 8.615,103.37 8.765,103.37L8.767,103.37L12.337,103.351C12.5,103.35 12.65,103.264 12.73,103.123C12.811,102.98 12.811,102.808 12.729,102.666C11.917,101.27 11.222,99.99 10.646,98.828C11.837,94.763 12.114,91.626 11.812,89.013C12.649,88.744 13.506,88.461 14.205,87.965C18.495,84.912 18.181,80.068 17.919,77.671C21.252,77.184 25.229,75.98 28.205,74.158C29.084,75.805 29.584,77.638 29.584,79.255C29.584,79.399 29.576,79.554 29.564,79.72C29.166,80.234 28.22,80.824 27.449,81.305C26.257,82.049 25.471,82.54 25.54,83.185C25.564,83.4 25.696,83.696 26.2,83.876C26.569,84.01 27.192,85.491 27.252,86.088C27.329,86.835 27.647,87.001 27.916,87.001C27.926,87.001 27.937,87.001 27.949,87C28.222,86.988 28.729,86.961 29.645,83.833C29.977,82.699 30.327,81.216 30.45,80.035C31.577,78.219 32.175,76.126 32.175,73.978C32.175,72.645 32.032,71.566 31.725,70.583C31.66,70.37 31.45,70.235 31.23,70.266C31.174,70.272 25.519,70.984 20.325,67.714C20.316,67.709 20.31,67.704 20.301,67.699C31.664,64.677 37.45,58.639 39.474,56.076C41.559,55.472 43.517,54.43 45.222,53.021C46.015,54.503 46.377,55.953 46.377,57.664C46.377,57.806 46.37,57.961 46.357,58.128C45.96,58.64 45.012,59.231 44.242,59.713C43.052,60.456 42.265,60.948 42.335,61.593C42.356,61.807 42.49,62.104 42.992,62.284C43.364,62.416 43.986,63.899 44.047,64.495C44.122,65.244 44.441,65.409 44.71,65.409C44.721,65.409 44.732,65.409 44.742,65.408C45.015,65.395 45.522,65.369 46.44,62.24C46.772,61.106 47.122,59.623 47.244,58.444C48.372,56.626 48.969,54.534 48.969,52.385C48.969,51.335 48.92,50.106 48.561,48.95C48.52,48.818 48.42,48.711 48.291,48.661C48.162,48.61 48.017,48.623 47.897,48.691C45.017,50.362 41.876,51.209 38.556,51.209C33.851,51.209 29.345,49.466 25.869,46.303C25.141,45.641 24.46,44.917 23.845,44.15L23.842,44.153C23.387,41.064 22.06,37.801 20.121,34.958C23.182,34.885 26.081,33.8 28.214,31.988C28.966,32.369 29.702,32.825 30.4,33.349C34.819,36.669 38,42.878 38.702,49.554L39.609,49.459C39.541,48.814 39.451,48.175 39.339,47.54C41.061,45.328 42.07,42.538 42.297,39.505C43.939,40.018 45.244,40.788 46.362,41.9C46.464,42.001 46.569,42.116 46.677,42.241C46.761,42.886 46.512,43.974 46.31,44.859C45.996,46.228 45.79,47.131 46.296,47.538C46.465,47.674 46.769,47.788 47.251,47.559C47.607,47.391 49.096,47.993 49.562,48.371C49.869,48.62 50.107,48.708 50.295,48.708C50.477,48.708 50.609,48.623 50.7,48.521C50.882,48.318 51.222,47.941 49.65,45.085Z" style="fill:white;"/>
                                    </g>
                                    <path id="Fill-12" d="M63.839,29.5L62.762,30.579L60.562,30.424L60.499,31.334L62.432,31.469L62.551,31.588L62.618,33.612L63.53,33.58L63.449,31.182L64.485,30.145L63.839,29.5Z" style="fill:white;"/>
                                    <g id="Group-16" transform="matrix(1,0,0,1,0,34)">
                                        <path id="Fill-14" d="M53.659,14.654L51.39,23.5C51.345,23.673 51.407,23.856 51.547,23.968C51.684,24.08 51.875,24.101 52.035,24.021L56.803,21.638C56.963,21.558 57.062,21.391 57.054,21.214L56.804,14.471L58.762,14.061L60.713,17.233C60.798,17.37 60.953,17.448 61.11,17.449C61.273,17.445 61.42,17.356 61.499,17.214L62.823,14.831C62.909,14.676 62.898,14.485 62.794,14.341L61.737,12.881L63.223,11.8L62.687,11.063L60.832,12.413C60.629,12.56 60.584,12.844 60.731,13.048L61.885,14.641L61.08,16.09L59.37,13.311C59.269,13.148 59.078,13.065 58.889,13.104L56.24,13.659C56.023,13.704 55.87,13.899 55.878,14.121L56.133,20.954L52.522,22.759L54.657,14.432C54.687,14.315 54.669,14.189 54.606,14.085C54.543,13.98 54.442,13.905 54.323,13.876L51.144,13.108C50.95,13.06 50.749,13.144 50.647,13.315L44.43,23.675L40.089,23.468L49.475,12.791C49.562,12.696 49.602,12.569 49.587,12.44C49.573,12.314 49.507,12.198 49.403,12.123L47.259,10.559C47.11,10.45 46.91,10.441 46.753,10.538L30.065,20.726L25.475,19.058L45.812,9.485C45.925,9.431 46.014,9.33 46.051,9.209C46.089,9.085 46.075,8.953 46.01,8.843L44.925,6.989C44.82,6.809 44.606,6.723 44.407,6.781L17.217,14.643L12.753,11.668L44.064,5.573C44.304,5.526 44.465,5.3 44.428,5.059L44.113,2.94C44.078,2.699 43.86,2.528 43.617,2.554L5.358,6.457L1.69,3.605L43.789,1.086L43.734,0.176L0.429,2.768C0.239,2.779 0.077,2.906 0.02,3.088C-0.036,3.269 0.027,3.465 0.177,3.581L4.941,7.289C5.035,7.361 5.152,7.395 5.269,7.383L43.275,3.505L43.463,4.761L11.492,10.984C11.31,11.019 11.168,11.161 11.132,11.343C11.095,11.524 11.173,11.709 11.327,11.811L16.887,15.518C16.999,15.592 17.138,15.614 17.267,15.576L44.318,7.755L44.972,8.873L24.097,18.699C23.929,18.778 23.827,18.949 23.835,19.133C23.843,19.316 23.962,19.476 24.134,19.54L29.96,21.659C30.092,21.706 30.235,21.691 30.353,21.619L46.968,11.475L48.462,12.565L38.778,23.578C38.663,23.709 38.633,23.895 38.7,24.056C38.769,24.218 38.924,24.325 39.099,24.334L44.66,24.599L44.682,24.599C44.84,24.599 44.989,24.515 45.073,24.378L51.255,14.073L53.659,14.654Z" style="fill:white;"/>
                                    </g>
                                </g>
                            </g>
                        </g>
                    </g>
                </g>
            </g>
        </g>
    </g>
</svg>
