<?xml version="1.0" encoding="UTF-8" standalone="no"?>
<!DOCTYPE svg PUBLIC "-//W3C//DTD SVG 1.1//EN" "http://www.w3.org/Graphics/SVG/1.1/DTD/svg11.dtd">
<svg width="100%" height="100%" viewBox="0 0 772 734" version="1.1" xmlns="http://www.w3.org/2000/svg" xmlns:xlink="http://www.w3.org/1999/xlink" xml:space="preserve" xmlns:serif="http://www.serif.com/" style="fill-rule:evenodd;clip-rule:evenodd;stroke-linejoin:round;stroke-miterlimit:2;">
    <g transform="matrix(1,0,0,1,-1958.11,-794.287)">
        <g transform="matrix(0.902576,0,0,0.902576,1084.41,188.571)">
            <path d="M1295.5,706C1512.68,706 1823,817.321 1823,1034.5C1823,1251.68 1590.68,1449.39 1373.5,1449.39C1156.32,1449.39 968,1230.68 968,1013.5C968,796.321 1078.32,706 1295.5,706Z" style="fill:rgb(52,124,144);"/>
        </g>
        <g transform="matrix(-0.463013,0.774766,-0.774766,-0.463013,3792.54,566.741)">
            <path d="M1295.5,706C1512.68,706 1823,817.321 1823,1034.5C1823,1251.68 1590.68,1449.39 1373.5,1449.39C1156.32,1449.39 968,1230.68 968,1013.5C968,796.321 1078.32,706 1295.5,706Z" style="fill:rgb(52,124,144);fill-opacity:0.64;"/>
        </g>
        <g id="arkea" transform="matrix(2.11894,0,0,2.11894,2343.96,1161.27)">
            <g transform="matrix(1,0,0,1,-128,-128)">
                <g id="CreditMutuelArkeaLarge">
                    <path id="Combined-Shape" d="M87.701,109.039C93.605,109.136 98.132,112.543 99.51,117.896C100.789,123.055 98.723,128.117 94.097,130.842C93.802,131.134 93.605,131.231 93.31,131.426C95.475,133.568 97.345,135.806 99.51,137.656C102.266,140.089 105.71,140.965 109.351,141.062L110.827,141.062L110.827,147C107.973,147 105.218,146.903 102.561,146.221C98.723,145.248 95.672,143.204 92.916,140.381C90.653,138.045 88.39,135.709 86.126,133.373C85.536,132.789 84.945,132.497 84.158,132.594C83.174,132.692 82.288,132.692 81.304,132.594C80.418,132.497 80.221,132.886 80.221,133.665L80.221,146.416L74.415,146.416C74.218,146.416 73.923,146.027 73.923,145.832C73.825,145.54 73.923,145.248 73.923,144.859L73.924,110.296C73.93,109.085 74.024,109.04 75.34,109.039L87.701,109.039ZM150.881,109.136C143.893,115.268 137.103,121.108 129.919,127.435C130.509,127.825 131.1,128.019 131.494,128.506C133.954,130.939 136.316,133.276 138.678,135.806C142.024,139.408 146.255,141.16 151.176,141.257C151.274,141.062 151.569,141.16 151.963,141.16L151.963,146.319C151.963,146.513 151.471,146.903 151.274,146.903C146.058,147 140.843,146.416 136.906,142.815C131.494,137.948 126.475,132.594 121.259,127.338C121.751,126.851 122.145,126.559 122.44,126.267C128.836,120.719 135.135,115.171 141.532,109.72C141.925,109.331 142.516,109.136 143.106,109.136C145.566,109.039 148.027,109.136 150.881,109.136ZM209.534,112.153C213.175,117.312 215.93,122.958 218.095,128.895C220.162,134.444 221.933,139.992 223.803,145.54C223.902,145.832 223.902,146.027 224,146.513L217.308,146.513C217.111,146.513 216.718,145.929 216.619,145.637C215.733,142.815 214.946,139.992 214.159,137.169C213.962,136.293 213.568,136.001 212.683,136.001L196.839,136.001C196.051,136.001 195.559,136.196 195.362,137.072C194.575,139.894 193.689,142.717 192.902,145.54C192.705,146.416 192.312,146.611 191.426,146.611C189.359,146.416 187.391,146.513 185.128,146.513C186.407,142.62 187.489,138.921 188.769,135.32C191.229,128.214 193.985,121.108 198.019,114.684C199.102,113.029 200.381,111.472 201.661,109.915C202.054,109.525 202.743,109.428 203.334,109.136L203.53,109.136C206.384,108.552 208.057,110.012 209.534,112.153ZM56.111,111.959C59.752,117.118 62.507,122.763 64.672,128.701C66.739,134.249 68.511,139.894 70.38,145.443C70.282,145.735 70.38,146.027 70.479,146.416L63.885,146.416C63.59,146.416 63.196,145.929 63.098,145.54C62.212,142.62 61.326,139.7 60.539,136.78C60.342,136.001 59.949,135.806 59.26,135.806L43.12,135.806C42.432,135.806 42.038,136.001 41.841,136.682C41.054,139.602 40.168,142.523 39.381,145.443C39.184,146.221 38.79,146.416 38.101,146.416L32,146.416L32,145.832C34.952,136.001 38.101,126.17 43.12,117.215C44.597,114.684 46.466,112.348 48.238,109.915C48.533,109.525 49.32,109.428 49.911,109.136L50.304,109.136C52.962,108.552 54.635,109.915 56.111,111.959ZM181.978,109.233L181.978,114.587C181.978,114.782 181.29,115.074 180.896,115.074L162.493,115.074L162.493,124.126L177.747,124.126L177.747,129.966L162.591,129.966L162.591,140.478L180.699,140.478C181.782,140.478 182.175,140.673 182.077,141.841C181.978,143.301 182.077,144.761 182.077,146.319L156.096,146.319L156.096,109.233L181.978,109.233ZM120.668,109.136L120.668,146.319L114.37,146.319L114.37,109.136L120.668,109.136ZM51.19,116.242C48.041,120.719 45.876,125.294 44.105,130.258L58.177,130.258C56.406,125.294 54.241,120.622 51.19,116.242ZM204.613,116.242C201.562,120.719 199.299,125.294 197.626,130.258L211.699,130.258C209.829,125.294 207.664,120.719 204.613,116.242ZM80.221,115.268L80.221,126.17C80.221,126.365 80.713,126.657 80.91,126.657C83.272,126.657 85.634,126.754 87.996,126.559C91.047,126.267 93.113,124.029 93.31,121.206C93.409,118.091 91.637,115.56 88.488,115.171C85.831,114.976 83.075,115.268 80.221,115.268Z" style="fill:white;fill-rule:nonzero;"/>
                </g>
            </g>
        </g>
    </g>
</svg>
