<?xml version="1.0" encoding="UTF-8" standalone="no"?>
<!DOCTYPE svg PUBLIC "-//W3C//DTD SVG 1.1//EN" "http://www.w3.org/Graphics/SVG/1.1/DTD/svg11.dtd">
<svg width="100%" height="100%" viewBox="0 0 807 767" version="1.1" xmlns="http://www.w3.org/2000/svg" xmlns:xlink="http://www.w3.org/1999/xlink" xml:space="preserve" xmlns:serif="http://www.serif.com/" style="fill-rule:evenodd;clip-rule:evenodd;stroke-linejoin:round;stroke-miterlimit:2;">
    <g transform="matrix(1,0,0,1,-123.5,-794.287)">
        <g transform="matrix(0.943051,0,0,0.943051,-789.373,161.408)">
            <path d="M1295.5,706C1512.68,706 1823,817.321 1823,1034.5C1823,1251.68 1590.68,1449.39 1373.5,1449.39C1156.32,1449.39 968,1230.68 968,1013.5C968,796.321 1078.32,706 1295.5,706Z" style="fill:rgb(52,124,144);"/>
        </g>
        <g transform="matrix(-0.483776,0.809509,-0.809509,-0.483776,2040.2,556.537)">
            <path d="M1295.5,706C1512.68,706 1823,817.321 1823,1034.5C1823,1251.68 1590.68,1449.39 1373.5,1449.39C1156.32,1449.39 968,1230.68 968,1013.5C968,796.321 1078.32,706 1295.5,706Z" style="fill:rgb(52,124,144);fill-opacity:0.64;"/>
        </g>
        <g transform="matrix(0.943051,0,0,0.943051,-1419.52,171.862)">
            <g transform="matrix(96,0,0,96,1749.09,1051.03)">
                <path d="M0.118,-0.727L0.334,-0.115L0.342,-0.115L0.558,-0.727L0.651,-0.727L0.384,-0L0.293,-0L0.026,-0.727L0.118,-0.727Z" style="fill:white;fill-rule:nonzero;"/>
            </g>
            <g transform="matrix(96,0,0,96,1809.09,1051.03)">
                <path d="M0.298,0.011C0.249,0.011 0.206,-0 0.169,-0.024C0.132,-0.047 0.103,-0.08 0.082,-0.122C0.061,-0.164 0.051,-0.214 0.051,-0.27C0.051,-0.327 0.061,-0.376 0.082,-0.419C0.103,-0.461 0.132,-0.494 0.169,-0.517C0.206,-0.541 0.249,-0.553 0.298,-0.553C0.348,-0.553 0.391,-0.541 0.428,-0.517C0.465,-0.494 0.494,-0.461 0.514,-0.419C0.535,-0.376 0.545,-0.327 0.545,-0.27C0.545,-0.214 0.535,-0.164 0.514,-0.122C0.494,-0.08 0.465,-0.047 0.428,-0.024C0.391,-0 0.348,0.011 0.298,0.011ZM0.298,-0.064C0.336,-0.064 0.366,-0.074 0.391,-0.093C0.415,-0.112 0.433,-0.137 0.444,-0.168C0.456,-0.2 0.462,-0.233 0.462,-0.27C0.462,-0.306 0.456,-0.34 0.444,-0.372C0.433,-0.403 0.415,-0.429 0.391,-0.448C0.366,-0.468 0.336,-0.477 0.298,-0.477C0.261,-0.477 0.23,-0.468 0.206,-0.448C0.182,-0.429 0.164,-0.403 0.152,-0.372C0.141,-0.34 0.135,-0.306 0.135,-0.27C0.135,-0.233 0.141,-0.2 0.152,-0.168C0.164,-0.137 0.182,-0.112 0.206,-0.093C0.23,-0.074 0.261,-0.064 0.298,-0.064Z" style="fill:white;fill-rule:nonzero;"/>
            </g>
            <g transform="matrix(96,0,0,96,1866.36,1051.03)">
                <path d="M0.314,-0.545L0.314,-0.474L0.031,-0.474L0.031,-0.545L0.314,-0.545ZM0.114,-0.676L0.197,-0.676L0.197,-0.156C0.197,-0.133 0.201,-0.115 0.208,-0.103C0.215,-0.091 0.224,-0.084 0.235,-0.08C0.246,-0.076 0.258,-0.074 0.27,-0.074C0.279,-0.074 0.287,-0.074 0.293,-0.075C0.299,-0.077 0.303,-0.077 0.307,-0.078L0.324,-0.003C0.318,-0.001 0.31,0.001 0.3,0.004C0.29,0.006 0.277,0.007 0.261,0.007C0.238,0.007 0.215,0.002 0.192,-0.008C0.169,-0.018 0.151,-0.034 0.136,-0.055C0.121,-0.076 0.114,-0.102 0.114,-0.134L0.114,-0.676Z" style="fill:white;fill-rule:nonzero;"/>
            </g>
            <g transform="matrix(96,0,0,96,1901.27,1051.03)">
                <path d="M0.077,-0L0.077,-0.545L0.158,-0.545L0.158,-0.463L0.163,-0.463C0.173,-0.49 0.191,-0.512 0.217,-0.529C0.243,-0.546 0.273,-0.554 0.305,-0.554C0.312,-0.554 0.319,-0.554 0.328,-0.554C0.338,-0.553 0.345,-0.553 0.349,-0.553L0.349,-0.467C0.347,-0.468 0.34,-0.469 0.33,-0.471C0.32,-0.472 0.309,-0.473 0.298,-0.473C0.272,-0.473 0.248,-0.468 0.227,-0.456C0.207,-0.445 0.19,-0.43 0.178,-0.411C0.166,-0.392 0.161,-0.37 0.161,-0.345L0.161,-0L0.077,-0Z" style="fill:white;fill-rule:nonzero;"/>
            </g>
            <g transform="matrix(96,0,0,96,1935.36,1051.03)">
                <path d="M0.305,0.011C0.253,0.011 0.208,-0 0.17,-0.024C0.132,-0.047 0.102,-0.08 0.082,-0.122C0.061,-0.164 0.051,-0.213 0.051,-0.268C0.051,-0.324 0.061,-0.374 0.082,-0.416C0.102,-0.459 0.131,-0.492 0.168,-0.517C0.205,-0.541 0.248,-0.553 0.297,-0.553C0.325,-0.553 0.353,-0.548 0.381,-0.538C0.409,-0.529 0.434,-0.514 0.457,-0.492C0.479,-0.471 0.498,-0.443 0.511,-0.408C0.525,-0.374 0.531,-0.331 0.531,-0.28L0.531,-0.244L0.111,-0.244L0.111,-0.317L0.446,-0.317C0.446,-0.348 0.44,-0.375 0.428,-0.399C0.416,-0.423 0.398,-0.442 0.376,-0.456C0.354,-0.47 0.327,-0.477 0.297,-0.477C0.263,-0.477 0.235,-0.469 0.21,-0.453C0.186,-0.436 0.167,-0.415 0.154,-0.388C0.141,-0.362 0.135,-0.334 0.135,-0.304L0.135,-0.256C0.135,-0.214 0.142,-0.18 0.156,-0.151C0.171,-0.123 0.191,-0.101 0.216,-0.086C0.242,-0.071 0.272,-0.064 0.305,-0.064C0.327,-0.064 0.347,-0.067 0.365,-0.073C0.383,-0.08 0.399,-0.089 0.412,-0.102C0.425,-0.114 0.435,-0.13 0.442,-0.149L0.523,-0.126C0.514,-0.099 0.5,-0.075 0.48,-0.054C0.46,-0.033 0.435,-0.017 0.405,-0.006C0.376,0.006 0.342,0.011 0.305,0.011Z" style="fill:white;fill-rule:nonzero;"/>
            </g>
            <g transform="matrix(96,0,0,96,1749.09,1151.03)">
                <path d="M0.063,-0L0.063,-0.727L0.553,-0.727L0.553,-0.6L0.217,-0.6L0.217,-0.427L0.528,-0.427L0.528,-0.3L0.217,-0.3L0.217,-0.127L0.555,-0.127L0.555,-0L0.063,-0Z" style="fill:white;fill-rule:nonzero;"/>
            </g>
            <g transform="matrix(96,0,0,96,1812.69,1151.03)">
                <path d="M0.672,-0.727L0.672,-0L0.539,-0L0.222,-0.458L0.217,-0.458L0.217,-0L0.063,-0L0.063,-0.727L0.198,-0.727L0.512,-0.27L0.518,-0.27L0.518,-0.727L0.672,-0.727Z" style="fill:white;fill-rule:nonzero;"/>
            </g>
            <g transform="matrix(96,0,0,96,1888.06,1151.03)">
                <path d="M0.036,-0.6L0.036,-0.727L0.633,-0.727L0.633,-0.6L0.41,-0.6L0.41,-0L0.258,-0L0.258,-0.6L0.036,-0.6Z" style="fill:white;fill-rule:nonzero;"/>
            </g>
            <g transform="matrix(96,0,0,96,1957.02,1151.03)">
                <path d="M0.063,-0L0.063,-0.727L0.35,-0.727C0.405,-0.727 0.452,-0.718 0.491,-0.698C0.53,-0.678 0.56,-0.651 0.58,-0.615C0.601,-0.58 0.611,-0.538 0.611,-0.49C0.611,-0.441 0.6,-0.4 0.58,-0.365C0.559,-0.331 0.529,-0.304 0.489,-0.286C0.45,-0.267 0.402,-0.258 0.346,-0.258L0.154,-0.258L0.154,-0.381L0.321,-0.381C0.351,-0.381 0.375,-0.385 0.395,-0.393C0.414,-0.402 0.428,-0.414 0.438,-0.43C0.448,-0.446 0.452,-0.466 0.452,-0.49C0.452,-0.514 0.448,-0.534 0.438,-0.551C0.428,-0.567 0.414,-0.58 0.394,-0.589C0.375,-0.597 0.35,-0.602 0.321,-0.602L0.217,-0.602L0.217,-0L0.063,-0ZM0.456,-0.331L0.637,-0L0.467,-0L0.29,-0.331L0.456,-0.331Z" style="fill:white;fill-rule:nonzero;"/>
            </g>
            <g transform="matrix(96,0,0,96,2024.82,1151.03)">
                <path d="M0.063,-0L0.063,-0.727L0.553,-0.727L0.553,-0.6L0.217,-0.6L0.217,-0.427L0.528,-0.427L0.528,-0.3L0.217,-0.3L0.217,-0.127L0.555,-0.127L0.555,-0L0.063,-0Z" style="fill:white;fill-rule:nonzero;"/>
            </g>
            <g transform="matrix(96,0,0,96,2088.43,1151.03)">
                <path d="M0.063,-0L0.063,-0.727L0.35,-0.727C0.405,-0.727 0.452,-0.717 0.491,-0.696C0.53,-0.675 0.56,-0.646 0.58,-0.609C0.601,-0.572 0.611,-0.529 0.611,-0.481C0.611,-0.433 0.6,-0.39 0.58,-0.353C0.559,-0.316 0.529,-0.287 0.489,-0.267C0.45,-0.246 0.402,-0.236 0.346,-0.236L0.163,-0.236L0.163,-0.359L0.321,-0.359C0.351,-0.359 0.375,-0.364 0.395,-0.374C0.414,-0.385 0.428,-0.399 0.438,-0.417C0.448,-0.436 0.452,-0.457 0.452,-0.481C0.452,-0.505 0.448,-0.526 0.438,-0.544C0.428,-0.562 0.414,-0.576 0.395,-0.586C0.375,-0.597 0.35,-0.602 0.321,-0.602L0.217,-0.602L0.217,-0L0.063,-0Z" style="fill:white;fill-rule:nonzero;"/>
            </g>
            <g transform="matrix(96,0,0,96,2155.41,1151.03)">
                <path d="M0.063,-0L0.063,-0.727L0.35,-0.727C0.405,-0.727 0.452,-0.718 0.491,-0.698C0.53,-0.678 0.56,-0.651 0.58,-0.615C0.601,-0.58 0.611,-0.538 0.611,-0.49C0.611,-0.441 0.6,-0.4 0.58,-0.365C0.559,-0.331 0.529,-0.304 0.489,-0.286C0.45,-0.267 0.402,-0.258 0.346,-0.258L0.154,-0.258L0.154,-0.381L0.321,-0.381C0.351,-0.381 0.375,-0.385 0.395,-0.393C0.414,-0.402 0.428,-0.414 0.438,-0.43C0.448,-0.446 0.452,-0.466 0.452,-0.49C0.452,-0.514 0.448,-0.534 0.438,-0.551C0.428,-0.567 0.414,-0.58 0.394,-0.589C0.375,-0.597 0.35,-0.602 0.321,-0.602L0.217,-0.602L0.217,-0L0.063,-0ZM0.456,-0.331L0.637,-0L0.467,-0L0.29,-0.331L0.456,-0.331Z" style="fill:white;fill-rule:nonzero;"/>
            </g>
            <g transform="matrix(96,0,0,96,2223.21,1151.03)">
                <rect x="0.063" y="-0.727" width="0.154" height="0.727" style="fill:white;fill-rule:nonzero;"/>
            </g>
            <g transform="matrix(96,0,0,96,2254.94,1151.03)">
                <path d="M0.458,-0.518C0.455,-0.547 0.443,-0.569 0.421,-0.585C0.4,-0.601 0.37,-0.609 0.333,-0.609C0.308,-0.609 0.287,-0.605 0.27,-0.598C0.253,-0.591 0.239,-0.582 0.23,-0.569C0.221,-0.557 0.217,-0.543 0.217,-0.527C0.216,-0.514 0.219,-0.503 0.225,-0.493C0.231,-0.484 0.239,-0.475 0.25,-0.468C0.261,-0.461 0.273,-0.455 0.287,-0.45C0.301,-0.445 0.316,-0.441 0.332,-0.437L0.397,-0.422C0.429,-0.414 0.458,-0.405 0.484,-0.393C0.511,-0.381 0.534,-0.367 0.553,-0.349C0.573,-0.332 0.588,-0.312 0.599,-0.288C0.609,-0.265 0.615,-0.238 0.615,-0.208C0.615,-0.163 0.604,-0.125 0.581,-0.092C0.559,-0.06 0.527,-0.034 0.485,-0.017C0.443,0.001 0.392,0.01 0.333,0.01C0.274,0.01 0.223,0.001 0.18,-0.017C0.136,-0.035 0.102,-0.061 0.078,-0.097C0.054,-0.132 0.041,-0.176 0.04,-0.228L0.189,-0.228C0.19,-0.204 0.197,-0.184 0.21,-0.167C0.222,-0.151 0.239,-0.139 0.26,-0.131C0.281,-0.123 0.304,-0.119 0.331,-0.119C0.357,-0.119 0.38,-0.122 0.399,-0.13C0.418,-0.138 0.433,-0.148 0.444,-0.162C0.455,-0.175 0.46,-0.191 0.46,-0.208C0.46,-0.224 0.455,-0.238 0.445,-0.249C0.436,-0.26 0.422,-0.27 0.404,-0.278C0.385,-0.286 0.363,-0.293 0.336,-0.299L0.257,-0.319C0.196,-0.334 0.147,-0.357 0.112,-0.389C0.076,-0.421 0.059,-0.463 0.059,-0.517C0.059,-0.561 0.07,-0.6 0.094,-0.632C0.118,-0.665 0.151,-0.691 0.192,-0.71C0.234,-0.728 0.281,-0.737 0.335,-0.737C0.388,-0.737 0.436,-0.728 0.476,-0.71C0.516,-0.691 0.548,-0.665 0.57,-0.632C0.593,-0.6 0.604,-0.561 0.605,-0.518L0.458,-0.518Z" style="fill:white;fill-rule:nonzero;"/>
            </g>
            <g transform="matrix(96,0,0,96,2322.6,1151.03)">
                <path d="M0.063,-0L0.063,-0.727L0.553,-0.727L0.553,-0.6L0.217,-0.6L0.217,-0.427L0.528,-0.427L0.528,-0.3L0.217,-0.3L0.217,-0.127L0.555,-0.127L0.555,-0L0.063,-0Z" style="fill:white;fill-rule:nonzero;"/>
            </g>
        </g>
    </g>
</svg>
