<?xml version="1.0" encoding="UTF-8" standalone="no"?>
<!DOCTYPE svg PUBLIC "-//W3C//DTD SVG 1.1//EN" "http://www.w3.org/Graphics/SVG/1.1/DTD/svg11.dtd">
<svg width="100%" height="100%" viewBox="0 0 772 734" version="1.1" xmlns="http://www.w3.org/2000/svg" xmlns:xlink="http://www.w3.org/1999/xlink" xml:space="preserve" xmlns:serif="http://www.serif.com/" style="fill-rule:evenodd;clip-rule:evenodd;stroke-linejoin:round;stroke-miterlimit:2;">
    <g transform="matrix(1,0,0,1,-1036.98,-794.287)">
        <g transform="matrix(0.902576,0,0,0.902576,163.283,188.571)">
            <path d="M1295.5,706C1512.68,706 1823,817.321 1823,1034.5C1823,1251.68 1590.68,1449.39 1373.5,1449.39C1156.32,1449.39 968,1230.68 968,1013.5C968,796.321 1078.32,706 1295.5,706Z" style="fill:rgb(52,124,144);"/>
        </g>
        <g transform="matrix(-0.463013,0.774766,-0.774766,-0.463013,2871.41,566.741)">
            <path d="M1295.5,706C1512.68,706 1823,817.321 1823,1034.5C1823,1251.68 1590.68,1449.39 1373.5,1449.39C1156.32,1449.39 968,1230.68 968,1013.5C968,796.321 1078.32,706 1295.5,706Z" style="fill:rgb(52,124,144);fill-opacity:0.64;"/>
        </g>
        <g transform="matrix(0.902576,0,0,0.902576,-398.994,271.518)">
            <g transform="matrix(144,0,0,144,1791.08,1038.16)">
                <rect x="0.063" y="-0.727" width="0.154" height="0.727" style="fill:white;fill-rule:nonzero;"/>
            </g>
            <g transform="matrix(144,0,0,144,1845.88,1038.16)">
                <path d="M0.036,-0.6L0.036,-0.727L0.633,-0.727L0.633,-0.6L0.41,-0.6L0.41,-0L0.258,-0L0.258,-0.6L0.036,-0.6Z" style="fill:white;fill-rule:nonzero;"/>
            </g>
            <g transform="matrix(144,0,0,144,1952.27,1038.16)">
                <rect x="0.069" y="-0.424" width="0.332" height="0.12" style="fill:white;fill-rule:nonzero;"/>
            </g>
            <g transform="matrix(144,0,0,144,2034.17,1038.16)">
                <path d="M0.705,-0.473L0.549,-0.473C0.547,-0.493 0.541,-0.511 0.532,-0.526C0.523,-0.542 0.512,-0.556 0.498,-0.567C0.484,-0.578 0.469,-0.586 0.451,-0.592C0.433,-0.598 0.414,-0.601 0.393,-0.601C0.355,-0.601 0.322,-0.592 0.294,-0.573C0.266,-0.555 0.245,-0.528 0.229,-0.492C0.214,-0.457 0.206,-0.414 0.206,-0.364C0.206,-0.312 0.214,-0.268 0.23,-0.233C0.245,-0.198 0.267,-0.171 0.295,-0.153C0.323,-0.135 0.355,-0.126 0.392,-0.126C0.412,-0.126 0.431,-0.129 0.449,-0.134C0.467,-0.14 0.482,-0.148 0.496,-0.158C0.51,-0.169 0.521,-0.182 0.53,-0.197C0.539,-0.212 0.546,-0.229 0.549,-0.249L0.705,-0.248C0.701,-0.214 0.691,-0.182 0.675,-0.151C0.659,-0.121 0.637,-0.093 0.611,-0.069C0.584,-0.044 0.552,-0.025 0.515,-0.011C0.478,0.003 0.436,0.01 0.389,0.01C0.324,0.01 0.266,-0.005 0.215,-0.034C0.164,-0.063 0.124,-0.106 0.095,-0.162C0.065,-0.217 0.05,-0.285 0.05,-0.364C0.05,-0.443 0.065,-0.51 0.095,-0.566C0.125,-0.622 0.165,-0.664 0.217,-0.693C0.268,-0.723 0.325,-0.737 0.389,-0.737C0.431,-0.737 0.47,-0.731 0.507,-0.719C0.543,-0.708 0.575,-0.69 0.603,-0.668C0.631,-0.645 0.653,-0.618 0.671,-0.585C0.689,-0.552 0.7,-0.515 0.705,-0.473Z" style="fill:white;fill-rule:nonzero;"/>
            </g>
            <g transform="matrix(144,0,0,144,2156.88,1038.16)">
                <path d="M0.063,-0L0.063,-0.727L0.553,-0.727L0.553,-0.6L0.217,-0.6L0.217,-0.427L0.528,-0.427L0.528,-0.3L0.217,-0.3L0.217,-0.127L0.555,-0.127L0.555,-0L0.063,-0Z" style="fill:white;fill-rule:nonzero;"/>
            </g>
        </g>
    </g>
</svg>
