<?xml version="1.0" encoding="UTF-8" standalone="no"?>
<!DOCTYPE svg PUBLIC "-//W3C//DTD SVG 1.1//EN" "http://www.w3.org/Graphics/SVG/1.1/DTD/svg11.dtd">
<svg width="100%" height="100%" viewBox="0 0 981 874" version="1.1" xmlns="http://www.w3.org/2000/svg" xmlns:xlink="http://www.w3.org/1999/xlink" xml:space="preserve" xmlns:serif="http://www.serif.com/" style="fill-rule:evenodd;clip-rule:evenodd;stroke-linecap:round;stroke-linejoin:round;stroke-miterlimit:1.5;">
    <g transform="matrix(1,0,0,1,-339.984,-643.094)">
        <g transform="matrix(4.3771,6.19563,-6.19563,4.3771,364.925,-1618.62)">
            <path d="M334,88C364.907,88 373,134.093 373,165C373,195.907 341.907,213 311,213C280.093,213 265,188.907 265,158C265,127.093 303.093,88 334,88Z" style="fill:rgb(52,124,144);fill-opacity:0.45;"/>
        </g>
        <g transform="matrix(1.92245,2.72116,-2.72116,1.92245,841.014,159.119)">
            <path d="M334,88C364.907,88 373,134.093 373,165C373,195.907 341.907,213 311,213C280.093,213 265,188.907 265,158C265,127.093 303.093,88 334,88Z" style="fill:rgb(52,124,144);"/>
        </g>
        <g transform="matrix(0.777122,0,0,0.777122,-748.234,200.792)">
            <g transform="matrix(64,0,0,64,2179.26,1458.42)">
                <path d="M0.063,-0.727L0.253,-0.727L0.453,-0.239L0.462,-0.239L0.662,-0.727L0.852,-0.727L0.852,-0L0.702,-0L0.702,-0.473L0.696,-0.473L0.508,-0.004L0.407,-0.004L0.218,-0.475L0.212,-0.475L0.212,-0L0.063,-0L0.063,-0.727Z" style="fill:white;fill-rule:nonzero;"/>
            </g>
            <g transform="matrix(64,0,0,64,2237.81,1458.42)">
                <path d="M0.216,0.01C0.181,0.01 0.15,0.004 0.123,-0.008C0.096,-0.02 0.074,-0.038 0.058,-0.062C0.043,-0.086 0.035,-0.116 0.035,-0.152C0.035,-0.183 0.04,-0.208 0.051,-0.229C0.063,-0.249 0.078,-0.266 0.097,-0.278C0.116,-0.291 0.138,-0.3 0.162,-0.307C0.187,-0.313 0.213,-0.318 0.24,-0.32C0.271,-0.324 0.297,-0.327 0.316,-0.33C0.336,-0.333 0.35,-0.337 0.359,-0.343C0.367,-0.349 0.372,-0.358 0.372,-0.369L0.372,-0.371C0.372,-0.394 0.365,-0.411 0.351,-0.424C0.337,-0.436 0.317,-0.442 0.291,-0.442C0.264,-0.442 0.242,-0.436 0.226,-0.424C0.21,-0.412 0.199,-0.397 0.194,-0.379L0.054,-0.391C0.061,-0.424 0.075,-0.452 0.096,-0.477C0.117,-0.501 0.144,-0.52 0.177,-0.533C0.21,-0.546 0.248,-0.553 0.292,-0.553C0.322,-0.553 0.351,-0.549 0.379,-0.542C0.407,-0.535 0.431,-0.524 0.453,-0.509C0.475,-0.494 0.492,-0.475 0.504,-0.452C0.517,-0.428 0.523,-0.4 0.523,-0.368L0.523,-0L0.38,-0L0.38,-0.076L0.375,-0.076C0.367,-0.059 0.355,-0.044 0.34,-0.031C0.326,-0.018 0.308,-0.008 0.287,-0.001C0.267,0.007 0.243,0.01 0.216,0.01ZM0.259,-0.094C0.281,-0.094 0.301,-0.099 0.318,-0.107C0.335,-0.116 0.349,-0.128 0.358,-0.143C0.368,-0.159 0.373,-0.176 0.373,-0.195L0.373,-0.253C0.368,-0.25 0.362,-0.247 0.354,-0.244C0.345,-0.242 0.336,-0.24 0.326,-0.238C0.316,-0.236 0.306,-0.234 0.295,-0.232C0.285,-0.231 0.276,-0.23 0.268,-0.228C0.25,-0.226 0.234,-0.222 0.221,-0.216C0.208,-0.21 0.198,-0.203 0.19,-0.193C0.183,-0.183 0.179,-0.172 0.179,-0.157C0.179,-0.137 0.187,-0.121 0.202,-0.11C0.217,-0.099 0.236,-0.094 0.259,-0.094Z" style="fill:white;fill-rule:nonzero;"/>
            </g>
            <g transform="matrix(64,0,0,64,2274.94,1458.42)">
                <path d="M0.06,-0L0.06,-0.545L0.212,-0.545L0.212,-0L0.06,-0ZM0.065,-0.61L-0.064,-0.61L-0.064,-0.615L0.08,-0.771L0.192,-0.771L0.337,-0.615L0.337,-0.61L0.208,-0.61L0.136,-0.697L0.065,-0.61Z" style="fill:white;fill-rule:nonzero;"/>
            </g>
            <g transform="matrix(64,0,0,64,2292.35,1458.42)">
                <path d="M0.35,-0.545L0.35,-0.432L0.022,-0.432L0.022,-0.545L0.35,-0.545ZM0.097,-0.676L0.248,-0.676L0.248,-0.168C0.248,-0.154 0.25,-0.143 0.254,-0.135C0.259,-0.127 0.265,-0.122 0.272,-0.119C0.28,-0.116 0.289,-0.114 0.299,-0.114C0.306,-0.114 0.313,-0.115 0.32,-0.116C0.327,-0.118 0.333,-0.119 0.337,-0.119L0.36,-0.007C0.353,-0.004 0.342,-0.002 0.328,0.002C0.315,0.005 0.298,0.007 0.278,0.007C0.242,0.009 0.21,0.004 0.183,-0.007C0.155,-0.018 0.134,-0.036 0.119,-0.059C0.104,-0.082 0.096,-0.112 0.097,-0.148L0.097,-0.676Z" style="fill:white;fill-rule:nonzero;"/>
            </g>
            <g transform="matrix(64,0,0,64,2317.22,1458.42)">
                <path d="M0.06,-0L0.06,-0.545L0.207,-0.545L0.207,-0.45L0.213,-0.45C0.223,-0.484 0.239,-0.51 0.263,-0.527C0.286,-0.545 0.313,-0.553 0.344,-0.553C0.351,-0.553 0.359,-0.553 0.368,-0.552C0.377,-0.551 0.385,-0.55 0.391,-0.548L0.391,-0.414C0.384,-0.416 0.374,-0.418 0.362,-0.419C0.349,-0.421 0.338,-0.422 0.327,-0.422C0.305,-0.422 0.285,-0.417 0.268,-0.407C0.251,-0.398 0.237,-0.385 0.227,-0.368C0.217,-0.35 0.212,-0.331 0.212,-0.309L0.212,-0L0.06,-0Z" style="fill:white;fill-rule:nonzero;"/>
            </g>
            <g transform="matrix(64,0,0,64,2343.38,1458.42)">
                <path d="M0.06,-0L0.06,-0.545L0.212,-0.545L0.212,-0L0.06,-0ZM0.137,-0.616C0.114,-0.616 0.095,-0.623 0.079,-0.638C0.063,-0.653 0.055,-0.671 0.055,-0.692C0.055,-0.713 0.063,-0.731 0.079,-0.746C0.095,-0.761 0.114,-0.769 0.136,-0.769C0.159,-0.769 0.178,-0.761 0.194,-0.746C0.21,-0.731 0.218,-0.713 0.218,-0.692C0.218,-0.671 0.21,-0.653 0.194,-0.638C0.178,-0.623 0.159,-0.616 0.137,-0.616Z" style="fill:white;fill-rule:nonzero;"/>
            </g>
            <g transform="matrix(64,0,0,64,2360.79,1458.42)">
                <path d="M0.514,-0.39L0.376,-0.381C0.373,-0.393 0.368,-0.404 0.36,-0.414C0.353,-0.423 0.342,-0.431 0.33,-0.437C0.317,-0.442 0.302,-0.445 0.284,-0.445C0.261,-0.445 0.241,-0.44 0.225,-0.431C0.209,-0.421 0.201,-0.408 0.201,-0.391C0.201,-0.378 0.206,-0.367 0.217,-0.358C0.227,-0.349 0.245,-0.342 0.27,-0.337L0.369,-0.317C0.422,-0.306 0.462,-0.288 0.488,-0.264C0.514,-0.24 0.527,-0.208 0.527,-0.169C0.527,-0.133 0.516,-0.102 0.495,-0.075C0.474,-0.048 0.446,-0.027 0.409,-0.012C0.373,0.003 0.331,0.011 0.284,0.011C0.212,0.011 0.154,-0.004 0.111,-0.035C0.069,-0.065 0.044,-0.106 0.036,-0.158L0.185,-0.166C0.19,-0.144 0.2,-0.127 0.218,-0.116C0.235,-0.104 0.257,-0.098 0.284,-0.098C0.311,-0.098 0.332,-0.104 0.348,-0.114C0.364,-0.124 0.373,-0.137 0.373,-0.154C0.373,-0.167 0.367,-0.179 0.355,-0.188C0.344,-0.197 0.327,-0.203 0.303,-0.208L0.208,-0.227C0.155,-0.238 0.116,-0.256 0.09,-0.282C0.064,-0.309 0.051,-0.342 0.051,-0.383C0.051,-0.418 0.06,-0.448 0.079,-0.473C0.098,-0.499 0.125,-0.518 0.16,-0.532C0.195,-0.546 0.235,-0.553 0.282,-0.553C0.351,-0.553 0.405,-0.538 0.445,-0.509C0.484,-0.48 0.508,-0.44 0.514,-0.39Z" style="fill:white;fill-rule:nonzero;"/>
            </g>
            <g transform="matrix(64,0,0,64,2396.74,1458.42)">
                <path d="M0.309,0.011C0.253,0.011 0.205,-0.001 0.164,-0.024C0.124,-0.046 0.093,-0.079 0.071,-0.121C0.049,-0.163 0.038,-0.213 0.038,-0.27C0.038,-0.326 0.049,-0.376 0.071,-0.418C0.093,-0.46 0.124,-0.493 0.163,-0.517C0.203,-0.541 0.249,-0.553 0.303,-0.553C0.339,-0.553 0.372,-0.547 0.404,-0.535C0.435,-0.524 0.462,-0.507 0.485,-0.484C0.509,-0.461 0.527,-0.432 0.54,-0.397C0.553,-0.363 0.559,-0.322 0.559,-0.276L0.559,-0.234L0.099,-0.234L0.099,-0.328L0.417,-0.328C0.417,-0.35 0.412,-0.369 0.403,-0.386C0.393,-0.402 0.38,-0.416 0.363,-0.425C0.347,-0.435 0.327,-0.44 0.305,-0.44C0.282,-0.44 0.262,-0.434 0.244,-0.424C0.227,-0.413 0.213,-0.399 0.203,-0.382C0.193,-0.364 0.188,-0.344 0.188,-0.323L0.188,-0.234C0.188,-0.207 0.193,-0.183 0.203,-0.164C0.213,-0.144 0.227,-0.129 0.246,-0.118C0.264,-0.108 0.286,-0.102 0.311,-0.102C0.328,-0.102 0.344,-0.105 0.358,-0.109C0.372,-0.114 0.384,-0.121 0.393,-0.131C0.403,-0.14 0.411,-0.152 0.416,-0.165L0.556,-0.156C0.549,-0.123 0.535,-0.093 0.513,-0.068C0.491,-0.043 0.463,-0.024 0.428,-0.01C0.394,0.004 0.354,0.011 0.309,0.011ZM0.245,-0.616L0.32,-0.777L0.46,-0.777L0.352,-0.616L0.245,-0.616Z" style="fill:white;fill-rule:nonzero;"/>
            </g>
        </g>
        <g transform="matrix(0.777122,0,0,0.777122,-838.309,215.921)">
            <g transform="matrix(64,0,0,64,1799.63,1062.32)">
                <path d="M0.195,-0.727L0.37,-0.175L0.377,-0.175L0.553,-0.727L0.724,-0.727L0.473,-0L0.275,-0L0.024,-0.727L0.195,-0.727Z" style="fill:white;fill-rule:nonzero;"/>
            </g>
            <g transform="matrix(64,0,0,64,1864.08,1062.32)">
                <path d="M0.732,-0.364C0.732,-0.284 0.717,-0.217 0.687,-0.161C0.657,-0.106 0.616,-0.063 0.564,-0.034C0.513,-0.005 0.455,0.01 0.391,0.01C0.326,0.01 0.268,-0.005 0.217,-0.034C0.166,-0.063 0.125,-0.106 0.095,-0.162C0.065,-0.217 0.05,-0.285 0.05,-0.364C0.05,-0.443 0.065,-0.51 0.095,-0.566C0.125,-0.622 0.166,-0.664 0.217,-0.693C0.268,-0.723 0.326,-0.737 0.391,-0.737C0.455,-0.737 0.513,-0.723 0.564,-0.693C0.616,-0.664 0.657,-0.622 0.687,-0.566C0.717,-0.51 0.732,-0.443 0.732,-0.364ZM0.576,-0.364C0.576,-0.415 0.568,-0.458 0.553,-0.494C0.537,-0.529 0.516,-0.556 0.488,-0.574C0.461,-0.592 0.428,-0.601 0.391,-0.601C0.354,-0.601 0.321,-0.592 0.294,-0.574C0.266,-0.556 0.244,-0.529 0.229,-0.494C0.214,-0.458 0.206,-0.415 0.206,-0.364C0.206,-0.312 0.214,-0.269 0.229,-0.234C0.244,-0.198 0.266,-0.172 0.294,-0.153C0.321,-0.135 0.354,-0.126 0.391,-0.126C0.428,-0.126 0.461,-0.135 0.488,-0.153C0.516,-0.172 0.537,-0.198 0.553,-0.234C0.568,-0.269 0.576,-0.312 0.576,-0.364Z" style="fill:white;fill-rule:nonzero;"/>
            </g>
            <g transform="matrix(64,0,0,64,1931.26,1062.32)">
                <path d="M0.036,-0.6L0.036,-0.727L0.633,-0.727L0.633,-0.6L0.41,-0.6L0.41,-0L0.258,-0L0.258,-0.6L0.036,-0.6Z" style="fill:white;fill-rule:nonzero;"/>
            </g>
            <g transform="matrix(64,0,0,64,1993.23,1062.32)">
                <path d="M0.063,-0L0.063,-0.727L0.35,-0.727C0.405,-0.727 0.452,-0.718 0.491,-0.698C0.53,-0.678 0.56,-0.651 0.58,-0.615C0.601,-0.58 0.611,-0.538 0.611,-0.49C0.611,-0.441 0.6,-0.4 0.58,-0.365C0.559,-0.331 0.529,-0.304 0.489,-0.286C0.45,-0.267 0.402,-0.258 0.346,-0.258L0.154,-0.258L0.154,-0.381L0.321,-0.381C0.351,-0.381 0.375,-0.385 0.395,-0.393C0.414,-0.402 0.428,-0.414 0.438,-0.43C0.448,-0.446 0.452,-0.466 0.452,-0.49C0.452,-0.514 0.448,-0.534 0.438,-0.551C0.428,-0.567 0.414,-0.58 0.394,-0.589C0.375,-0.597 0.35,-0.602 0.321,-0.602L0.217,-0.602L0.217,-0L0.063,-0ZM0.456,-0.331L0.637,-0L0.467,-0L0.29,-0.331L0.456,-0.331Z" style="fill:white;fill-rule:nonzero;"/>
            </g>
            <g transform="matrix(64,0,0,64,2054.43,1062.32)">
                <path d="M0.063,-0L0.063,-0.727L0.553,-0.727L0.553,-0.6L0.217,-0.6L0.217,-0.427L0.528,-0.427L0.528,-0.3L0.217,-0.3L0.217,-0.127L0.555,-0.127L0.555,-0L0.063,-0Z" style="fill:white;fill-rule:nonzero;"/>
            </g>
            <g transform="matrix(64,0,0,64,2146.87,1062.32)">
                <path d="M0.063,-0L0.063,-0.727L0.35,-0.727C0.405,-0.727 0.452,-0.717 0.491,-0.696C0.53,-0.675 0.56,-0.646 0.58,-0.609C0.601,-0.572 0.611,-0.529 0.611,-0.481C0.611,-0.433 0.6,-0.39 0.58,-0.353C0.559,-0.316 0.529,-0.287 0.489,-0.267C0.45,-0.246 0.402,-0.236 0.346,-0.236L0.163,-0.236L0.163,-0.359L0.321,-0.359C0.351,-0.359 0.375,-0.364 0.395,-0.374C0.414,-0.385 0.428,-0.399 0.438,-0.417C0.448,-0.436 0.452,-0.457 0.452,-0.481C0.452,-0.505 0.448,-0.526 0.438,-0.544C0.428,-0.562 0.414,-0.576 0.395,-0.586C0.375,-0.597 0.35,-0.602 0.321,-0.602L0.217,-0.602L0.217,-0L0.063,-0Z" style="fill:white;fill-rule:nonzero;"/>
            </g>
            <g transform="matrix(64,0,0,64,2207.53,1062.32)">
                <path d="M0.063,-0L0.063,-0.727L0.35,-0.727C0.405,-0.727 0.452,-0.718 0.491,-0.698C0.53,-0.678 0.56,-0.651 0.58,-0.615C0.601,-0.58 0.611,-0.538 0.611,-0.49C0.611,-0.441 0.6,-0.4 0.58,-0.365C0.559,-0.331 0.529,-0.304 0.489,-0.286C0.45,-0.267 0.402,-0.258 0.346,-0.258L0.154,-0.258L0.154,-0.381L0.321,-0.381C0.351,-0.381 0.375,-0.385 0.395,-0.393C0.414,-0.402 0.428,-0.414 0.438,-0.43C0.448,-0.446 0.452,-0.466 0.452,-0.49C0.452,-0.514 0.448,-0.534 0.438,-0.551C0.428,-0.567 0.414,-0.58 0.394,-0.589C0.375,-0.597 0.35,-0.602 0.321,-0.602L0.217,-0.602L0.217,-0L0.063,-0ZM0.456,-0.331L0.637,-0L0.467,-0L0.29,-0.331L0.456,-0.331Z" style="fill:white;fill-rule:nonzero;"/>
            </g>
            <g transform="matrix(64,0,0,64,2268.73,1062.32)">
                <path d="M0.732,-0.364C0.732,-0.284 0.717,-0.217 0.687,-0.161C0.657,-0.106 0.616,-0.063 0.564,-0.034C0.513,-0.005 0.455,0.01 0.391,0.01C0.326,0.01 0.268,-0.005 0.217,-0.034C0.166,-0.063 0.125,-0.106 0.095,-0.162C0.065,-0.217 0.05,-0.285 0.05,-0.364C0.05,-0.443 0.065,-0.51 0.095,-0.566C0.125,-0.622 0.166,-0.664 0.217,-0.693C0.268,-0.723 0.326,-0.737 0.391,-0.737C0.455,-0.737 0.513,-0.723 0.564,-0.693C0.616,-0.664 0.657,-0.622 0.687,-0.566C0.717,-0.51 0.732,-0.443 0.732,-0.364ZM0.576,-0.364C0.576,-0.415 0.568,-0.458 0.553,-0.494C0.537,-0.529 0.516,-0.556 0.488,-0.574C0.461,-0.592 0.428,-0.601 0.391,-0.601C0.354,-0.601 0.321,-0.592 0.294,-0.574C0.266,-0.556 0.244,-0.529 0.229,-0.494C0.214,-0.458 0.206,-0.415 0.206,-0.364C0.206,-0.312 0.214,-0.269 0.229,-0.234C0.244,-0.198 0.266,-0.172 0.294,-0.153C0.321,-0.135 0.354,-0.126 0.391,-0.126C0.428,-0.126 0.461,-0.135 0.488,-0.153C0.516,-0.172 0.537,-0.198 0.553,-0.234C0.568,-0.269 0.576,-0.312 0.576,-0.364Z" style="fill:white;fill-rule:nonzero;"/>
            </g>
            <g transform="matrix(64,0,0,64,2337.97,1062.32)">
                <path d="M0.354,-0.727L0.506,-0.727L0.506,-0.22C0.506,-0.173 0.496,-0.133 0.475,-0.098C0.454,-0.063 0.425,-0.037 0.388,-0.018C0.351,0.001 0.307,0.01 0.258,0.01C0.214,0.01 0.175,0.002 0.139,-0.013C0.103,-0.029 0.075,-0.052 0.054,-0.084C0.033,-0.116 0.023,-0.156 0.023,-0.205L0.176,-0.205C0.177,-0.185 0.181,-0.169 0.188,-0.155C0.196,-0.142 0.206,-0.131 0.219,-0.124C0.232,-0.117 0.248,-0.113 0.266,-0.113C0.285,-0.113 0.301,-0.117 0.314,-0.126C0.327,-0.134 0.337,-0.146 0.344,-0.162C0.351,-0.177 0.354,-0.197 0.354,-0.22L0.354,-0.727Z" style="fill:white;fill-rule:nonzero;"/>
            </g>
            <g transform="matrix(64,0,0,64,2393.65,1062.32)">
                <path d="M0.063,-0L0.063,-0.727L0.553,-0.727L0.553,-0.6L0.217,-0.6L0.217,-0.427L0.528,-0.427L0.528,-0.3L0.217,-0.3L0.217,-0.127L0.555,-0.127L0.555,-0L0.063,-0Z" style="fill:white;fill-rule:nonzero;"/>
            </g>
            <g transform="matrix(64,0,0,64,2452.06,1062.32)">
                <path d="M0.036,-0.6L0.036,-0.727L0.633,-0.727L0.633,-0.6L0.41,-0.6L0.41,-0L0.258,-0L0.258,-0.6L0.036,-0.6Z" style="fill:white;fill-rule:nonzero;"/>
            </g>
        </g>
        <g transform="matrix(0.777122,0,0,0.777122,-701.57,197.175)">
            <path d="M2431.12,1338.59C2357.51,1301.81 2209.98,1259.47 2131.37,1307.33C2038.98,1363.58 2030.71,1560.82 2129.86,1615.79C2337.47,1730.88 2565.54,1431.38 2350.2,1289.03" style="fill:none;stroke:white;stroke-width:8.36px;"/>
        </g>
        <g transform="matrix(0.777122,0,0,0.777122,-662.016,184.096)">
            <path d="M2336.55,1334.93C2379.22,1280.11 2451.97,1218.87 2399.2,1145.07C2376.17,1112.87 2335.91,1095.97 2297.94,1088.51" style="fill:none;stroke:white;stroke-width:8.36px;"/>
        </g>
    </g>
</svg>
