<?xml version="1.0" encoding="UTF-8" standalone="no"?>
<!DOCTYPE svg PUBLIC "-//W3C//DTD SVG 1.1//EN" "http://www.w3.org/Graphics/SVG/1.1/DTD/svg11.dtd">
<svg width="100%" height="100%" viewBox="0 0 1133 874" version="1.1" xmlns="http://www.w3.org/2000/svg" xmlns:xlink="http://www.w3.org/1999/xlink" xml:space="preserve" xmlns:serif="http://www.serif.com/" style="fill-rule:evenodd;clip-rule:evenodd;stroke-linejoin:round;stroke-miterlimit:2;">
    <g transform="matrix(1,0,0,1,-2367.56,-643.094)">
        <g transform="matrix(6.9905,0,0,6.9905,515.073,27.9299)">
            <path d="M334,88C364.907,88 373,134.093 373,165C373,195.907 341.907,213 311,213C280.093,213 265,188.907 265,158C265,127.093 303.093,88 334,88Z" style="fill:rgb(52,124,144);"/>
        </g>
        <g transform="matrix(6.9905,0,0,6.9905,892.56,27.9299)">
            <path d="M334,88C364.907,88 373,134.093 373,165C373,195.907 341.907,213 311,213C280.093,213 265,188.907 265,158C265,127.093 303.093,88 334,88Z" style="fill:rgb(135,177,189);fill-opacity:0.54;"/>
        </g>
        <g transform="matrix(4.3454,0,0,4.3454,2006.04,606.051)">
            <g transform="matrix(12,0,0,12,112.98,113.431)">
                <path d="M0.195,-0.727L0.37,-0.175L0.377,-0.175L0.553,-0.727L0.724,-0.727L0.473,-0L0.275,-0L0.024,-0.727L0.195,-0.727Z" style="fill:white;fill-rule:nonzero;"/>
            </g>
            <g transform="matrix(12,0,0,12,121.465,113.431)">
                <path d="M0.732,-0.364C0.732,-0.284 0.717,-0.217 0.687,-0.161C0.657,-0.106 0.616,-0.063 0.564,-0.034C0.513,-0.005 0.455,0.01 0.391,0.01C0.326,0.01 0.268,-0.005 0.217,-0.034C0.166,-0.063 0.125,-0.106 0.095,-0.162C0.065,-0.217 0.05,-0.285 0.05,-0.364C0.05,-0.443 0.065,-0.51 0.095,-0.566C0.125,-0.622 0.166,-0.664 0.217,-0.693C0.268,-0.723 0.326,-0.737 0.391,-0.737C0.455,-0.737 0.513,-0.723 0.564,-0.693C0.616,-0.664 0.657,-0.622 0.687,-0.566C0.717,-0.51 0.732,-0.443 0.732,-0.364ZM0.576,-0.364C0.576,-0.415 0.568,-0.458 0.553,-0.494C0.537,-0.529 0.516,-0.556 0.488,-0.574C0.461,-0.592 0.428,-0.601 0.391,-0.601C0.354,-0.601 0.321,-0.592 0.294,-0.574C0.266,-0.556 0.244,-0.529 0.229,-0.494C0.214,-0.458 0.206,-0.415 0.206,-0.364C0.206,-0.312 0.214,-0.269 0.229,-0.234C0.244,-0.198 0.266,-0.172 0.294,-0.153C0.321,-0.135 0.354,-0.126 0.391,-0.126C0.428,-0.126 0.461,-0.135 0.488,-0.153C0.516,-0.172 0.537,-0.198 0.553,-0.234C0.568,-0.269 0.576,-0.312 0.576,-0.364Z" style="fill:white;fill-rule:nonzero;"/>
            </g>
            <g transform="matrix(12,0,0,12,130.848,113.431)">
                <path d="M0.512,-0.727L0.666,-0.727L0.666,-0.255C0.666,-0.202 0.654,-0.156 0.628,-0.116C0.603,-0.076 0.568,-0.045 0.523,-0.023C0.478,-0.001 0.425,0.01 0.365,0.01C0.304,0.01 0.252,-0.001 0.206,-0.023C0.161,-0.045 0.126,-0.076 0.101,-0.116C0.076,-0.156 0.063,-0.202 0.063,-0.255L0.063,-0.727L0.217,-0.727L0.217,-0.268C0.217,-0.24 0.223,-0.216 0.235,-0.194C0.247,-0.173 0.265,-0.156 0.287,-0.143C0.309,-0.131 0.335,-0.125 0.365,-0.125C0.395,-0.125 0.421,-0.131 0.443,-0.143C0.465,-0.156 0.482,-0.173 0.494,-0.194C0.506,-0.216 0.512,-0.24 0.512,-0.268L0.512,-0.727Z" style="fill:white;fill-rule:nonzero;"/>
            </g>
            <g transform="matrix(12,0,0,12,139.601,113.431)">
                <path d="M0.458,-0.518C0.455,-0.547 0.443,-0.569 0.421,-0.585C0.4,-0.601 0.37,-0.609 0.333,-0.609C0.308,-0.609 0.287,-0.605 0.27,-0.598C0.253,-0.591 0.239,-0.582 0.23,-0.569C0.221,-0.557 0.217,-0.543 0.217,-0.527C0.216,-0.514 0.219,-0.503 0.225,-0.493C0.231,-0.484 0.239,-0.475 0.25,-0.468C0.261,-0.461 0.273,-0.455 0.287,-0.45C0.301,-0.445 0.316,-0.441 0.332,-0.437L0.397,-0.422C0.429,-0.414 0.458,-0.405 0.484,-0.393C0.511,-0.381 0.534,-0.367 0.553,-0.349C0.573,-0.332 0.588,-0.312 0.599,-0.288C0.609,-0.265 0.615,-0.238 0.615,-0.208C0.615,-0.163 0.604,-0.125 0.581,-0.092C0.559,-0.06 0.527,-0.034 0.485,-0.017C0.443,0.001 0.392,0.01 0.333,0.01C0.274,0.01 0.223,0.001 0.18,-0.017C0.136,-0.035 0.102,-0.061 0.078,-0.097C0.054,-0.132 0.041,-0.176 0.04,-0.228L0.189,-0.228C0.19,-0.204 0.197,-0.184 0.21,-0.167C0.222,-0.151 0.239,-0.139 0.26,-0.131C0.281,-0.123 0.304,-0.119 0.331,-0.119C0.357,-0.119 0.38,-0.122 0.399,-0.13C0.418,-0.138 0.433,-0.148 0.444,-0.162C0.455,-0.175 0.46,-0.191 0.46,-0.208C0.46,-0.224 0.455,-0.238 0.445,-0.249C0.436,-0.26 0.422,-0.27 0.404,-0.278C0.385,-0.286 0.363,-0.293 0.336,-0.299L0.257,-0.319C0.196,-0.334 0.147,-0.357 0.112,-0.389C0.076,-0.421 0.059,-0.463 0.059,-0.517C0.059,-0.561 0.07,-0.6 0.094,-0.632C0.118,-0.665 0.151,-0.691 0.192,-0.71C0.234,-0.728 0.281,-0.737 0.335,-0.737C0.388,-0.737 0.436,-0.728 0.476,-0.71C0.516,-0.691 0.548,-0.665 0.57,-0.632C0.593,-0.6 0.604,-0.561 0.605,-0.518L0.458,-0.518Z" style="fill:white;fill-rule:nonzero;"/>
            </g>
        </g>
        <g transform="matrix(4.3454,0,0,4.3454,2766.49,606.07)">
            <g transform="matrix(12,0,0,12,112.98,113.431)">
                <path d="M0.063,-0.727L0.253,-0.727L0.453,-0.239L0.462,-0.239L0.662,-0.727L0.852,-0.727L0.852,-0L0.702,-0L0.702,-0.473L0.696,-0.473L0.508,-0.004L0.407,-0.004L0.218,-0.475L0.212,-0.475L0.212,-0L0.063,-0L0.063,-0.727Z" style="fill:white;fill-rule:nonzero;"/>
            </g>
            <g transform="matrix(12,0,0,12,123.958,113.431)">
                <path d="M0.732,-0.364C0.732,-0.284 0.717,-0.217 0.687,-0.161C0.657,-0.106 0.616,-0.063 0.564,-0.034C0.513,-0.005 0.455,0.01 0.391,0.01C0.326,0.01 0.268,-0.005 0.217,-0.034C0.166,-0.063 0.125,-0.106 0.095,-0.162C0.065,-0.217 0.05,-0.285 0.05,-0.364C0.05,-0.443 0.065,-0.51 0.095,-0.566C0.125,-0.622 0.166,-0.664 0.217,-0.693C0.268,-0.723 0.326,-0.737 0.391,-0.737C0.455,-0.737 0.513,-0.723 0.564,-0.693C0.616,-0.664 0.657,-0.622 0.687,-0.566C0.717,-0.51 0.732,-0.443 0.732,-0.364ZM0.576,-0.364C0.576,-0.415 0.568,-0.458 0.553,-0.494C0.537,-0.529 0.516,-0.556 0.488,-0.574C0.461,-0.592 0.428,-0.601 0.391,-0.601C0.354,-0.601 0.321,-0.592 0.294,-0.574C0.266,-0.556 0.244,-0.529 0.229,-0.494C0.214,-0.458 0.206,-0.415 0.206,-0.364C0.206,-0.312 0.214,-0.269 0.229,-0.234C0.244,-0.198 0.266,-0.172 0.294,-0.153C0.321,-0.135 0.354,-0.126 0.391,-0.126C0.428,-0.126 0.461,-0.135 0.488,-0.153C0.516,-0.172 0.537,-0.198 0.553,-0.234C0.568,-0.269 0.576,-0.312 0.576,-0.364Z" style="fill:white;fill-rule:nonzero;"/>
            </g>
            <g transform="matrix(12,0,0,12,133.341,113.431)">
                <rect x="0.063" y="-0.727" width="0.154" height="0.727" style="fill:white;fill-rule:nonzero;"/>
            </g>
        </g>
        <g transform="matrix(4.3454,0,0,4.3454,1675.79,306.519)">
            <path d="M289.771,110.096C297.516,109.173 305.545,107.649 313.365,108.431C313.555,108.45 313.724,108.312 313.743,108.122C313.762,107.933 313.624,107.763 313.434,107.744C305.564,106.957 297.484,108.482 289.689,109.41C289.5,109.433 289.364,109.604 289.387,109.794C289.41,109.983 289.581,110.118 289.771,110.096Z" style="fill:white;"/>
        </g>
        <g transform="matrix(4.3454,0,0,4.3454,1675.79,306.519)">
            <path d="M277.144,123.103C290.844,120.449 304.698,118.394 318.619,120.665C318.807,120.695 318.984,120.568 319.015,120.38C319.045,120.192 318.918,120.014 318.73,119.983C304.728,117.7 290.793,119.756 277.013,122.425C276.826,122.461 276.703,122.642 276.74,122.829C276.776,123.016 276.957,123.139 277.144,123.103Z" style="fill:white;"/>
        </g>
        <g transform="matrix(4.3454,0,0,4.3454,1675.79,306.519)">
            <path d="M266.046,136.484C283.818,131.65 304.015,129.974 322.246,133.028C322.434,133.059 322.612,132.932 322.643,132.745C322.675,132.557 322.548,132.379 322.36,132.347C304.034,129.277 283.73,130.958 265.864,135.818C265.681,135.868 265.572,136.058 265.622,136.242C265.672,136.426 265.862,136.534 266.046,136.484Z" style="fill:white;"/>
        </g>
        <g transform="matrix(4.3454,0,0,4.3454,1675.79,306.519)">
            <path d="M259.301,149.504C273.771,146.251 288.143,145.234 302.914,145.474C310.625,145.599 318.312,145.496 325.881,147.108C326.068,147.147 326.251,147.028 326.291,146.842C326.331,146.656 326.211,146.472 326.025,146.433C318.412,144.812 310.681,144.909 302.925,144.783C288.099,144.543 273.673,145.566 259.149,148.83C258.963,148.872 258.846,149.057 258.888,149.243C258.93,149.429 259.115,149.546 259.301,149.504Z" style="fill:white;"/>
        </g>
        <g transform="matrix(4.3454,0,0,4.3454,1675.79,306.519)">
            <path d="M251.771,164.775C277.294,157.618 302.339,157.947 328.146,162.502C328.333,162.535 328.513,162.41 328.546,162.222C328.579,162.034 328.453,161.855 328.266,161.822C302.356,157.249 277.21,156.924 251.584,164.111C251.401,164.162 251.294,164.353 251.345,164.536C251.396,164.72 251.587,164.827 251.771,164.775Z" style="fill:white;"/>
        </g>
        <g transform="matrix(4.3454,0,0,4.3454,1675.79,306.519)">
            <path d="M247.813,184.121C265,178.453 283.782,178.07 301.68,179.202C311.623,179.83 321.757,180.72 331.507,182.877C331.693,182.919 331.877,182.801 331.918,182.615C331.959,182.429 331.842,182.245 331.656,182.203C321.871,180.038 311.702,179.144 301.724,178.513C283.739,177.376 264.867,177.769 247.597,183.465C247.416,183.525 247.317,183.72 247.377,183.901C247.437,184.082 247.632,184.181 247.813,184.121Z" style="fill:white;"/>
        </g>
        <g transform="matrix(4.3454,0,0,4.3454,1675.79,306.519)">
            <path d="M247.279,202.646C258.519,199.522 270.158,197.045 281.851,196.672C297.943,196.158 315.773,199.595 331.013,205.135C331.192,205.2 331.39,205.107 331.455,204.928C331.52,204.749 331.428,204.551 331.249,204.486C315.929,198.917 298.005,195.466 281.829,195.982C270.081,196.357 258.387,198.843 247.094,201.981C246.911,202.032 246.803,202.222 246.854,202.406C246.905,202.59 247.096,202.697 247.279,202.646Z" style="fill:white;"/>
        </g>
        <g transform="matrix(4.3454,0,0,4.3454,1675.79,306.519)">
            <path d="M249.658,217.757C276.436,212.918 303.261,212.263 328.545,223.004C328.72,223.078 328.923,222.996 328.997,222.821C329.072,222.646 328.99,222.443 328.815,222.368C303.405,211.573 276.447,212.215 249.535,217.078C249.348,217.112 249.223,217.292 249.257,217.479C249.291,217.667 249.471,217.791 249.658,217.757Z" style="fill:white;"/>
        </g>
        <g transform="matrix(4.3454,0,0,4.3454,1675.79,306.519)">
            <path d="M252.941,231.945C274.636,227.17 300.065,227.497 320.868,236.095C321.044,236.168 321.246,236.084 321.318,235.908C321.391,235.732 321.307,235.53 321.131,235.457C300.203,226.807 274.619,226.466 252.793,231.271C252.607,231.312 252.489,231.496 252.53,231.682C252.571,231.868 252.755,231.986 252.941,231.945Z" style="fill:white;"/>
        </g>
        <g transform="matrix(4.3454,0,0,4.3454,1675.79,306.519)">
            <path d="M257.822,245.694C275.047,245.099 292.701,246.211 309.118,251.756C309.299,251.817 309.495,251.72 309.556,251.539C309.617,251.359 309.52,251.163 309.339,251.102C292.843,245.53 275.106,244.406 257.798,245.004C257.608,245.011 257.459,245.171 257.465,245.361C257.472,245.551 257.632,245.701 257.822,245.694Z" style="fill:white;"/>
        </g>
        <g transform="matrix(4.3454,0,0,4.3454,1675.79,306.519)">
            <path d="M267.495,257.252C276.461,257.696 285.603,258.981 293.799,262.785C293.971,262.865 294.177,262.79 294.257,262.617C294.337,262.444 294.262,262.239 294.089,262.159C285.813,258.318 276.583,257.01 267.529,256.562C267.339,256.553 267.176,256.7 267.167,256.89C267.158,257.08 267.304,257.242 267.495,257.252Z" style="fill:white;"/>
        </g>
    </g>
</svg>
